<?xml version="1.0" encoding="UTF-8"?>
<svg width="162px" height="86px" viewBox="0 0 162 86" version="1.1" xmlns="http://www.w3.org/2000/svg" xmlns:xlink="http://www.w3.org/1999/xlink">
    <title>logo-cultural</title>
    <g id="Page-1" stroke="none" stroke-width="1" fill="none" fill-rule="evenodd">
        <g id="logo-cultural">
            <g id="Group-2" transform="translate(0.000000, 10.000000)" fill="#ED9F2D">
                <path d="M44.2583286,0 L26.6539452,0 C24.683193,2.07533196 22.7866574,4.27791056 20.9733648,6.60369621 C7.86009,23.4315583 1.04820758,44.0828786 0.236839374,65.1724929 L0.227813028,65.999596 L9.31433462,65.999596 C11.2911044,47.5468147 17.9525477,29.7514743 29.5092793,14.9282516 C33.9743118,9.19912353 38.9317816,4.22034661 44.2583286,0" id="Fill-4042"></path>
                <path d="M7.56141824,0 C-1.7577825,13.9809712 0.163826264,28.4052857 0.163826264,28.4052857 C3.37319371,18.2720103 8.1471278,8.66085009 14.5016753,0 L7.56141824,0 Z" id="Fill-4043"></path>
                <path d="M37.1379457,17.3221041 C25.5541351,31.3394315 18.4734682,48.2652532 15.7625556,66 L29.8376377,66 C33.477261,52.6593016 39.7415451,40.0881423 48.6926715,29.25905 C51.0134453,26.4495252 53.4545704,23.8308703 56,21.4081348 L56,0.222580616 C49.1540181,4.78528126 42.7934529,10.4841125 37.1379457,17.3221041" id="Fill-4044"></path>
                <path d="M34.1830209,65.999697 L55.9996991,65.999697 L55.9996991,28.4548715 C54.6046272,29.9283067 53.2446578,31.4572861 51.9248054,33.0539283 C43.8261672,42.8529288 37.9299574,54.0708303 34.1830209,65.999697" id="Fill-4045"></path>
            </g>
            <rect id="Rectangle" fill-opacity="0" fill="#FFFFFF" x="-1.13686838e-13" y="76" width="10" height="10"></rect>
            <rect id="Rectangle-Copy-35" fill-opacity="0" fill="#FFFFFF" x="-1.13686838e-13" y="0" width="10" height="10"></rect>
            <g id="Group-5" transform="translate(66.408705, 17.578000)" fill-rule="nonzero">
                <g id="Radio" transform="translate(0.713000, 0.000000)" fill="#1A1919">
                    <path d="M3.611,7.429 L3.611,2.806 L7.567,2.806 C8.395,2.806 9.016,2.98616667 9.43,3.3465 C9.844,3.70683333 10.051,4.28566667 10.051,5.083 C10.051,5.911 9.844,6.509 9.43,6.877 C9.016,7.245 8.395,7.429 7.567,7.429 L3.611,7.429 Z M0,0 L0,16.422 L3.611,16.422 L3.611,10.005 L7.222,10.005 C8.12666667,10.005 8.77833333,10.2043333 9.177,10.603 C9.57566667,11.0016667 9.83633333,11.6303333 9.959,12.489 C10.051,13.1483333 10.12,13.8383333 10.166,14.559 C10.212,15.2796667 10.3346667,15.9006667 10.534,16.422 L14.145,16.422 C13.9763333,16.192 13.8498333,15.9121667 13.7655,15.5825 C13.6811667,15.2528333 13.6198333,14.904 13.5815,14.536 C13.5431667,14.168 13.5163333,13.8076667 13.501,13.455 C13.4856667,13.1023333 13.4703333,12.7956667 13.455,12.535 C13.4243333,12.121 13.3668333,11.707 13.2825,11.293 C13.1981667,10.879 13.064,10.4995 12.88,10.1545 C12.696,9.8095 12.4583333,9.5105 12.167,9.2575 C11.8756667,9.0045 11.5076667,8.81666667 11.063,8.694 L11.063,8.648 C11.983,8.28 12.6461667,7.74333333 13.0525,7.038 C13.4588333,6.33266667 13.662,5.497 13.662,4.531 C13.662,3.90233333 13.5508333,3.31583333 13.3285,2.7715 C13.1061667,2.22716667 12.7841667,1.748 12.3625,1.334 C11.9408333,0.92 11.4348333,0.594166667 10.8445,0.3565 C10.2541667,0.118833333 9.591,0 8.855,0 L0,0 Z" id="Shape"></path>
                    <path d="M16.023,8.188 C16.069,7.42133333 16.2606667,6.785 16.598,6.279 C16.9353333,5.773 17.3646667,5.36666667 17.886,5.06 C18.4073333,4.75333333 18.9938333,4.53483333 19.6455,4.4045 C20.2971667,4.27416667 20.9526667,4.209 21.612,4.209 C22.21,4.209 22.8156667,4.25116667 23.429,4.3355 C24.0423333,4.41983333 24.602,4.58466667 25.108,4.83 C25.614,5.07533333 26.028,5.4165 26.35,5.8535 C26.672,6.2905 26.833,6.86933333 26.833,7.59 L26.833,13.777 C26.833,14.3136667 26.8636667,14.8273333 26.925,15.318 C26.9863333,15.8086667 27.0936667,16.1766667 27.247,16.422 L23.935,16.422 C23.8736667,16.238 23.8238333,16.0501667 23.7855,15.8585 C23.7471667,15.6668333 23.7203333,15.4713333 23.705,15.272 C23.1836667,15.8086667 22.5703333,16.1843333 21.865,16.399 C21.1596667,16.6136667 20.439,16.721 19.703,16.721 C19.1356667,16.721 18.6066667,16.652 18.116,16.514 C17.6253333,16.376 17.196,16.1613333 16.828,15.87 C16.46,15.5786667 16.1725,15.2106667 15.9655,14.766 C15.7585,14.3213333 15.655,13.7923333 15.655,13.179 C15.655,12.5043333 15.7738333,11.9485 16.0115,11.5115 C16.2491667,11.0745 16.5558333,10.7256667 16.9315,10.465 C17.3071667,10.2043333 17.7365,10.0088333 18.2195,9.8785 C18.7025,9.74816667 19.1893333,9.64466667 19.68,9.568 C20.1706667,9.49133333 20.6536667,9.43 21.129,9.384 C21.6043333,9.338 22.026,9.269 22.394,9.177 C22.762,9.085 23.0533333,8.95083333 23.268,8.7745 C23.4826667,8.59816667 23.5823333,8.34133333 23.567,8.004 C23.567,7.65133333 23.5095,7.3715 23.3945,7.1645 C23.2795,6.9575 23.1261667,6.7965 22.9345,6.6815 C22.7428333,6.5665 22.5205,6.48983333 22.2675,6.4515 C22.0145,6.41316667 21.7423333,6.394 21.451,6.394 C20.807,6.394 20.301,6.532 19.933,6.808 C19.565,7.084 19.3503333,7.544 19.289,8.188 L16.023,8.188 Z M23.567,10.603 C23.429,10.7256667 23.2565,10.8215 23.0495,10.8905 C22.8425,10.9595 22.6201667,11.017 22.3825,11.063 C22.1448333,11.109 21.8956667,11.1473333 21.635,11.178 C21.3743333,11.2086667 21.1136667,11.247 20.853,11.293 C20.6076667,11.339 20.3661667,11.4003333 20.1285,11.477 C19.8908333,11.5536667 19.6838333,11.6571667 19.5075,11.7875 C19.3311667,11.9178333 19.1893333,12.0826667 19.082,12.282 C18.9746667,12.4813333 18.921,12.7343333 18.921,13.041 C18.921,13.3323333 18.9746667,13.5776667 19.082,13.777 C19.1893333,13.9763333 19.335,14.1335 19.519,14.2485 C19.703,14.3635 19.9176667,14.444 20.163,14.49 C20.4083333,14.536 20.6613333,14.559 20.922,14.559 C21.566,14.559 22.0643333,14.4516667 22.417,14.237 C22.7696667,14.0223333 23.0303333,13.7655 23.199,13.4665 C23.3676667,13.1675 23.4711667,12.8646667 23.5095,12.558 C23.5478333,12.2513333 23.567,12.006 23.567,11.822 L23.567,10.603 Z" id="Shape"></path>
                    <path d="M37.704,10.442 C37.704,10.9326667 37.658,11.408 37.566,11.868 C37.474,12.328 37.3206667,12.7381667 37.106,13.0985 C36.8913333,13.4588333 36.6038333,13.7463333 36.2435,13.961 C35.8831667,14.1756667 35.4346667,14.283 34.898,14.283 C34.392,14.283 33.9588333,14.1718333 33.5985,13.9495 C33.2381667,13.7271667 32.9391667,13.4358333 32.7015,13.0755 C32.4638333,12.7151667 32.2913333,12.305 32.184,11.845 C32.0766667,11.385 32.023,10.925 32.023,10.465 C32.023,9.97433333 32.0728333,9.50283333 32.1725,9.0505 C32.2721667,8.59816667 32.4331667,8.19566667 32.6555,7.843 C32.8778333,7.49033333 33.173,7.20666667 33.541,6.992 C33.909,6.77733333 34.3613333,6.67 34.898,6.67 C35.4346667,6.67 35.8793333,6.77733333 36.232,6.992 C36.5846667,7.20666667 36.8721667,7.4865 37.0945,7.8315 C37.3168333,8.1765 37.474,8.57516667 37.566,9.0275 C37.658,9.47983333 37.704,9.95133333 37.704,10.442 Z M37.75,14.904 L37.75,16.422 L40.855,16.422 L40.855,0 L37.589,0 L37.589,5.98 L37.543,5.98 C37.175,5.39733333 36.6728333,4.9565 36.0365,4.6575 C35.4001667,4.3585 34.7293333,4.209 34.024,4.209 C33.15,4.209 32.3833333,4.3815 31.724,4.7265 C31.0646667,5.0715 30.5165,5.52766667 30.0795,6.095 C29.6425,6.66233333 29.3128333,7.31783333 29.0905,8.0615 C28.8681667,8.80516667 28.757,9.57566667 28.757,10.373 C28.757,11.201 28.8681667,11.9983333 29.0905,12.765 C29.3128333,13.5316667 29.6425,14.2101667 30.0795,14.8005 C30.5165,15.3908333 31.0723333,15.8585 31.747,16.2035 C32.4216667,16.5485 33.2036667,16.721 34.093,16.721 C34.875,16.721 35.5765,16.5791667 36.1975,16.2955 C36.8185,16.0118333 37.3206667,15.548 37.704,14.904 L37.75,14.904 Z" id="Shape"></path>
                    <path d="M46.574,2.691 L46.574,0 L43.308,0 L43.308,2.691 L46.574,2.691 Z M43.308,4.531 L43.308,16.422 L46.574,16.422 L46.574,4.531 L43.308,4.531 Z" id="Shape"></path>
                    <path d="M51.948,10.488 C51.948,10.0126667 51.994,9.545 52.086,9.085 C52.178,8.625 52.3351667,8.21866667 52.5575,7.866 C52.7798333,7.51333333 53.075,7.22583333 53.443,7.0035 C53.811,6.78116667 54.271,6.67 54.823,6.67 C55.375,6.67 55.8388333,6.78116667 56.2145,7.0035 C56.5901667,7.22583333 56.8891667,7.51333333 57.1115,7.866 C57.3338333,8.21866667 57.491,8.625 57.583,9.085 C57.675,9.545 57.721,10.0126667 57.721,10.488 C57.721,10.9633333 57.675,11.4271667 57.583,11.8795 C57.491,12.3318333 57.3338333,12.7381667 57.1115,13.0985 C56.8891667,13.4588333 56.5901667,13.7463333 56.2145,13.961 C55.8388333,14.1756667 55.375,14.283 54.823,14.283 C54.271,14.283 53.811,14.1756667 53.443,13.961 C53.075,13.7463333 52.7798333,13.4588333 52.5575,13.0985 C52.3351667,12.7381667 52.178,12.3318333 52.086,11.8795 C51.994,11.4271667 51.948,10.9633333 51.948,10.488 Z M48.682,10.488 C48.682,11.4386667 48.8276667,12.2973333 49.119,13.064 C49.4103333,13.8306667 49.8243333,14.4861667 50.361,15.0305 C50.8976667,15.5748333 51.5416667,15.9926667 52.293,16.284 C53.0443333,16.5753333 53.8876667,16.721 54.823,16.721 C55.7583333,16.721 56.6055,16.5753333 57.3645,16.284 C58.1235,15.9926667 58.7713333,15.5748333 59.308,15.0305 C59.8446667,14.4861667 60.2586667,13.8306667 60.55,13.064 C60.8413333,12.2973333 60.987,11.4386667 60.987,10.488 C60.987,9.53733333 60.8413333,8.67483333 60.55,7.9005 C60.2586667,7.12616667 59.8446667,6.46683333 59.308,5.9225 C58.7713333,5.37816667 58.1235,4.9565 57.3645,4.6575 C56.6055,4.3585 55.7583333,4.209 54.823,4.209 C53.8876667,4.209 53.0443333,4.3585 52.293,4.6575 C51.5416667,4.9565 50.8976667,5.37816667 50.361,5.9225 C49.8243333,6.46683333 49.4103333,7.12616667 49.119,7.9005 C48.8276667,8.67483333 48.682,9.53733333 48.682,10.488 Z" id="Shape"></path>
                </g>
                <g id="România" transform="translate(0.713000, 20.625700)" fill="#1A1919">
                    <path d="M3.611,7.636 L3.611,3.013 L7.567,3.013 C8.395,3.013 9.016,3.19316667 9.43,3.5535 C9.844,3.91383333 10.051,4.49266667 10.051,5.29 C10.051,6.118 9.844,6.716 9.43,7.084 C9.016,7.452 8.395,7.636 7.567,7.636 L3.611,7.636 Z M0,0.207 L0,16.629 L3.611,16.629 L3.611,10.212 L7.222,10.212 C8.12666667,10.212 8.77833333,10.4113333 9.177,10.81 C9.57566667,11.2086667 9.83633333,11.8373333 9.959,12.696 C10.051,13.3553333 10.12,14.0453333 10.166,14.766 C10.212,15.4866667 10.3346667,16.1076667 10.534,16.629 L14.145,16.629 C13.9763333,16.399 13.8498333,16.1191667 13.7655,15.7895 C13.6811667,15.4598333 13.6198333,15.111 13.5815,14.743 C13.5431667,14.375 13.5163333,14.0146667 13.501,13.662 C13.4856667,13.3093333 13.4703333,13.0026667 13.455,12.742 C13.4243333,12.328 13.3668333,11.914 13.2825,11.5 C13.1981667,11.086 13.064,10.7065 12.88,10.3615 C12.696,10.0165 12.4583333,9.7175 12.167,9.4645 C11.8756667,9.2115 11.5076667,9.02366667 11.063,8.901 L11.063,8.855 C11.983,8.487 12.6461667,7.95033333 13.0525,7.245 C13.4588333,6.53966667 13.662,5.704 13.662,4.738 C13.662,4.10933333 13.5508333,3.52283333 13.3285,2.9785 C13.1061667,2.43416667 12.7841667,1.955 12.3625,1.541 C11.9408333,1.127 11.4348333,0.801166667 10.8445,0.5635 C10.2541667,0.325833333 9.591,0.207 8.855,0.207 L0,0.207 Z" id="Shape"></path>
                    <path d="M19.059,10.695 C19.059,10.2196667 19.105,9.752 19.197,9.292 C19.289,8.832 19.4461667,8.42566667 19.6685,8.073 C19.8908333,7.72033333 20.186,7.43283333 20.554,7.2105 C20.922,6.98816667 21.382,6.877 21.934,6.877 C22.486,6.877 22.9498333,6.98816667 23.3255,7.2105 C23.7011667,7.43283333 24.0001667,7.72033333 24.2225,8.073 C24.4448333,8.42566667 24.602,8.832 24.694,9.292 C24.786,9.752 24.832,10.2196667 24.832,10.695 C24.832,11.1703333 24.786,11.6341667 24.694,12.0865 C24.602,12.5388333 24.4448333,12.9451667 24.2225,13.3055 C24.0001667,13.6658333 23.7011667,13.9533333 23.3255,14.168 C22.9498333,14.3826667 22.486,14.49 21.934,14.49 C21.382,14.49 20.922,14.3826667 20.554,14.168 C20.186,13.9533333 19.8908333,13.6658333 19.6685,13.3055 C19.4461667,12.9451667 19.289,12.5388333 19.197,12.0865 C19.105,11.6341667 19.059,11.1703333 19.059,10.695 Z M15.793,10.695 C15.793,11.6456667 15.9386667,12.5043333 16.23,13.271 C16.5213333,14.0376667 16.9353333,14.6931667 17.472,15.2375 C18.0086667,15.7818333 18.6526667,16.1996667 19.404,16.491 C20.1553333,16.7823333 20.9986667,16.928 21.934,16.928 C22.8693333,16.928 23.7165,16.7823333 24.4755,16.491 C25.2345,16.1996667 25.8823333,15.7818333 26.419,15.2375 C26.9556667,14.6931667 27.3696667,14.0376667 27.661,13.271 C27.9523333,12.5043333 28.098,11.6456667 28.098,10.695 C28.098,9.74433333 27.9523333,8.88183333 27.661,8.1075 C27.3696667,7.33316667 26.9556667,6.67383333 26.419,6.1295 C25.8823333,5.58516667 25.2345,5.1635 24.4755,4.8645 C23.7165,4.5655 22.8693333,4.416 21.934,4.416 C20.9986667,4.416 20.1553333,4.5655 19.404,4.8645 C18.6526667,5.1635 18.0086667,5.58516667 17.472,6.1295 C16.9353333,6.67383333 16.5213333,7.33316667 16.23,8.1075 C15.9386667,8.88183333 15.793,9.74433333 15.793,10.695 Z" id="Shape"></path>
                    <path d="M30.206,4.738 L30.206,16.629 L33.472,16.629 L33.472,9.729 C33.472,9.14633333 33.5563333,8.67483333 33.725,8.3145 C33.8936667,7.95416667 34.0968333,7.67816667 34.3345,7.4865 C34.5721667,7.29483333 34.8175,7.1645 35.0705,7.0955 C35.3235,7.0265 35.5266667,6.992 35.68,6.992 C36.2013333,6.992 36.5961667,7.08016667 36.8645,7.2565 C37.1328333,7.43283333 37.3245,7.66666667 37.4395,7.958 C37.5545,8.24933333 37.6196667,8.5675 37.635,8.9125 C37.6503333,9.2575 37.658,9.60633333 37.658,9.959 L37.658,16.629 L40.924,16.629 L40.924,10.005 C40.924,9.637 40.9508333,9.27283333 41.0045,8.9125 C41.0581667,8.55216667 41.1655,8.23016667 41.3265,7.9465 C41.4875,7.66283333 41.7098333,7.43283333 41.9935,7.2565 C42.2771667,7.08016667 42.649,6.992 43.109,6.992 C43.569,6.992 43.9331667,7.06866667 44.2015,7.222 C44.4698333,7.37533333 44.673,7.58233333 44.811,7.843 C44.949,8.10366667 45.0333333,8.41033333 45.064,8.763 C45.0946667,9.11566667 45.11,9.49133333 45.11,9.89 L45.11,16.629 L48.376,16.629 L48.376,8.671 C48.376,7.90433333 48.2686667,7.24883333 48.054,6.7045 C47.8393333,6.16016667 47.5403333,5.71933333 47.157,5.382 C46.7736667,5.04466667 46.3136667,4.79933333 45.777,4.646 C45.2403333,4.49266667 44.6576667,4.416 44.029,4.416 C43.201,4.416 42.4841667,4.61533333 41.8785,5.014 C41.2728333,5.41266667 40.7936667,5.87266667 40.441,6.394 C40.119,5.658 39.6475,5.14433333 39.0265,4.853 C38.4055,4.56166667 37.7193333,4.416 36.968,4.416 C36.186,4.416 35.4921667,4.58466667 34.8865,4.922 C34.2808333,5.25933333 33.7633333,5.73466667 33.334,6.348 L33.288,6.348 L33.288,4.738 L30.206,4.738 Z" id="Path"></path>
                    <path d="M50.714,8.395 C50.76,7.62833333 50.9516667,6.992 51.289,6.486 C51.6263333,5.98 52.0556667,5.57366667 52.577,5.267 C53.0983333,4.96033333 53.6848333,4.74183333 54.3365,4.6115 C54.9881667,4.48116667 55.6436667,4.416 56.303,4.416 C56.901,4.416 57.5066667,4.45816667 58.12,4.5425 C58.7333333,4.62683333 59.293,4.79166667 59.799,5.037 C60.305,5.28233333 60.719,5.6235 61.041,6.0605 C61.363,6.4975 61.524,7.07633333 61.524,7.797 L61.524,13.984 C61.524,14.5206667 61.5546667,15.0343333 61.616,15.525 C61.6773333,16.0156667 61.7846667,16.3836667 61.938,16.629 L58.626,16.629 C58.5646667,16.445 58.5148333,16.2571667 58.4765,16.0655 C58.4381667,15.8738333 58.4113333,15.6783333 58.396,15.479 C57.8746667,16.0156667 57.2613333,16.3913333 56.556,16.606 C55.8506667,16.8206667 55.13,16.928 54.394,16.928 C53.8266667,16.928 53.2976667,16.859 52.807,16.721 C52.3163333,16.583 51.887,16.3683333 51.519,16.077 C51.151,15.7856667 50.8635,15.4176667 50.6565,14.973 C50.4495,14.5283333 50.346,13.9993333 50.346,13.386 C50.346,12.7113333 50.4648333,12.1555 50.7025,11.7185 C50.9401667,11.2815 51.2468333,10.9326667 51.6225,10.672 C51.9981667,10.4113333 52.4275,10.2158333 52.9105,10.0855 C53.3935,9.95516667 53.8803333,9.85166667 54.371,9.775 C54.8616667,9.69833333 55.3446667,9.637 55.82,9.591 C56.2953333,9.545 56.717,9.476 57.085,9.384 C57.453,9.292 57.7443333,9.15783333 57.959,8.9815 C58.1736667,8.80516667 58.2733333,8.54833333 58.258,8.211 C58.258,7.85833333 58.2005,7.5785 58.0855,7.3715 C57.9705,7.1645 57.8171667,7.0035 57.6255,6.8885 C57.4338333,6.7735 57.2115,6.69683333 56.9585,6.6585 C56.7055,6.62016667 56.4333333,6.601 56.142,6.601 C55.498,6.601 54.992,6.739 54.624,7.015 C54.256,7.291 54.0413333,7.751 53.98,8.395 L50.714,8.395 Z M58.258,10.81 C58.12,10.9326667 57.9475,11.0285 57.7405,11.0975 C57.5335,11.1665 57.3111667,11.224 57.0735,11.27 C56.8358333,11.316 56.5866667,11.3543333 56.326,11.385 C56.0653333,11.4156667 55.8046667,11.454 55.544,11.5 C55.2986667,11.546 55.0571667,11.6073333 54.8195,11.684 C54.5818333,11.7606667 54.3748333,11.8641667 54.1985,11.9945 C54.0221667,12.1248333 53.8803333,12.2896667 53.773,12.489 C53.6656667,12.6883333 53.612,12.9413333 53.612,13.248 C53.612,13.5393333 53.6656667,13.7846667 53.773,13.984 C53.8803333,14.1833333 54.026,14.3405 54.21,14.4555 C54.394,14.5705 54.6086667,14.651 54.854,14.697 C55.0993333,14.743 55.3523333,14.766 55.613,14.766 C56.257,14.766 56.7553333,14.6586667 57.108,14.444 C57.4606667,14.2293333 57.7213333,13.9725 57.89,13.6735 C58.0586667,13.3745 58.1621667,13.0716667 58.2005,12.765 C58.2388333,12.4583333 58.258,12.213 58.258,12.029 L58.258,10.81 Z M57.637,0 L60.167,3.266 L57.476,3.266 L56.05,1.403 L54.578,3.266 L52.117,3.266 L54.647,0 L57.637,0 Z" id="Shape"></path>
                    <path d="M63.954,4.738 L63.954,16.629 L67.22,16.629 L67.22,10.396 C67.22,9.18466667 67.4193333,8.3145 67.818,7.7855 C68.2166667,7.2565 68.8606667,6.992 69.75,6.992 C70.532,6.992 71.0763333,7.2335 71.383,7.7165 C71.6896667,8.1995 71.843,8.93166667 71.843,9.913 L71.843,16.629 L75.109,16.629 L75.109,9.315 C75.109,8.579 75.0438333,7.90816667 74.9135,7.3025 C74.7831667,6.69683333 74.557,6.18316667 74.235,5.7615 C73.913,5.33983333 73.4721667,5.01016667 72.9125,4.7725 C72.3528333,4.53483333 71.636,4.416 70.762,4.416 C70.072,4.416 69.3973333,4.57316667 68.738,4.8875 C68.0786667,5.20183333 67.542,5.704 67.128,6.394 L67.059,6.394 L67.059,4.738 L63.954,4.738 Z" id="Path"></path>
                    <path d="M80.851,2.898 L80.851,0.207 L77.585,0.207 L77.585,2.898 L80.851,2.898 Z M77.585,4.738 L77.585,16.629 L80.851,16.629 L80.851,4.738 L77.585,4.738 Z" id="Shape"></path>
                    <path d="M83.189,8.395 C83.235,7.62833333 83.4266667,6.992 83.764,6.486 C84.1013333,5.98 84.5306667,5.57366667 85.052,5.267 C85.5733333,4.96033333 86.1598333,4.74183333 86.8115,4.6115 C87.4631667,4.48116667 88.1186667,4.416 88.778,4.416 C89.376,4.416 89.9816667,4.45816667 90.595,4.5425 C91.2083333,4.62683333 91.768,4.79166667 92.274,5.037 C92.78,5.28233333 93.194,5.6235 93.516,6.0605 C93.838,6.4975 93.999,7.07633333 93.999,7.797 L93.999,13.984 C93.999,14.5206667 94.0296667,15.0343333 94.091,15.525 C94.1523333,16.0156667 94.2596667,16.3836667 94.413,16.629 L91.101,16.629 C91.0396667,16.445 90.9898333,16.2571667 90.9515,16.0655 C90.9131667,15.8738333 90.8863333,15.6783333 90.871,15.479 C90.3496667,16.0156667 89.7363333,16.3913333 89.031,16.606 C88.3256667,16.8206667 87.605,16.928 86.869,16.928 C86.3016667,16.928 85.7726667,16.859 85.282,16.721 C84.7913333,16.583 84.362,16.3683333 83.994,16.077 C83.626,15.7856667 83.3385,15.4176667 83.1315,14.973 C82.9245,14.5283333 82.821,13.9993333 82.821,13.386 C82.821,12.7113333 82.9398333,12.1555 83.1775,11.7185 C83.4151667,11.2815 83.7218333,10.9326667 84.0975,10.672 C84.4731667,10.4113333 84.9025,10.2158333 85.3855,10.0855 C85.8685,9.95516667 86.3553333,9.85166667 86.846,9.775 C87.3366667,9.69833333 87.8196667,9.637 88.295,9.591 C88.7703333,9.545 89.192,9.476 89.56,9.384 C89.928,9.292 90.2193333,9.15783333 90.434,8.9815 C90.6486667,8.80516667 90.7483333,8.54833333 90.733,8.211 C90.733,7.85833333 90.6755,7.5785 90.5605,7.3715 C90.4455,7.1645 90.2921667,7.0035 90.1005,6.8885 C89.9088333,6.7735 89.6865,6.69683333 89.4335,6.6585 C89.1805,6.62016667 88.9083333,6.601 88.617,6.601 C87.973,6.601 87.467,6.739 87.099,7.015 C86.731,7.291 86.5163333,7.751 86.455,8.395 L83.189,8.395 Z M90.733,10.81 C90.595,10.9326667 90.4225,11.0285 90.2155,11.0975 C90.0085,11.1665 89.7861667,11.224 89.5485,11.27 C89.3108333,11.316 89.0616667,11.3543333 88.801,11.385 C88.5403333,11.4156667 88.2796667,11.454 88.019,11.5 C87.7736667,11.546 87.5321667,11.6073333 87.2945,11.684 C87.0568333,11.7606667 86.8498333,11.8641667 86.6735,11.9945 C86.4971667,12.1248333 86.3553333,12.2896667 86.248,12.489 C86.1406667,12.6883333 86.087,12.9413333 86.087,13.248 C86.087,13.5393333 86.1406667,13.7846667 86.248,13.984 C86.3553333,14.1833333 86.501,14.3405 86.685,14.4555 C86.869,14.5705 87.0836667,14.651 87.329,14.697 C87.5743333,14.743 87.8273333,14.766 88.088,14.766 C88.732,14.766 89.2303333,14.6586667 89.583,14.444 C89.9356667,14.2293333 90.1963333,13.9725 90.365,13.6735 C90.5336667,13.3745 90.6371667,13.0716667 90.6755,12.765 C90.7138333,12.4583333 90.733,12.213 90.733,12.029 L90.733,10.81 Z" id="Shape"></path>
                </g>
                <g id="Cultural" transform="translate(0.000000, 41.291748)" fill="#ED9F2D">
                    <path d="M11.661,5.911 L15.157,5.911 C15.0496667,4.96033333 14.789,4.117 14.375,3.381 C13.961,2.645 13.4358333,2.02783333 12.7995,1.5295 C12.1631667,1.03116667 11.4425,0.651666667 10.6375,0.391 C9.8325,0.130333333 8.97766667,0 8.073,0 C6.81566667,0 5.68483333,0.222333333 4.6805,0.667 C3.67616667,1.11166667 2.829,1.725 2.139,2.507 C1.449,3.289 0.92,4.20516667 0.552,5.2555 C0.184,6.30583333 0,7.44433333 0,8.671 C0,9.867 0.184,10.9825 0.552,12.0175 C0.92,13.0525 1.449,13.9533333 2.139,14.72 C2.829,15.4866667 3.67616667,16.0885 4.6805,16.5255 C5.68483333,16.9625 6.81566667,17.181 8.073,17.181 C9.085,17.181 10.0126667,17.0276667 10.856,16.721 C11.6993333,16.4143333 12.4353333,15.9696667 13.064,15.387 C13.6926667,14.8043333 14.1986667,14.099 14.582,13.271 C14.9653333,12.443 15.203,11.5153333 15.295,10.488 L11.799,10.488 C11.661,11.592 11.2815,12.4813333 10.6605,13.156 C10.0395,13.8306667 9.177,14.168 8.073,14.168 C7.26033333,14.168 6.57033333,14.0108333 6.003,13.6965 C5.43566667,13.3821667 4.97566667,12.9643333 4.623,12.443 C4.27033333,11.9216667 4.0135,11.3351667 3.8525,10.6835 C3.6915,10.0318333 3.611,9.361 3.611,8.671 C3.611,7.95033333 3.6915,7.25266667 3.8525,6.578 C4.0135,5.90333333 4.27033333,5.3015 4.623,4.7725 C4.97566667,4.2435 5.43566667,3.82183333 6.003,3.5075 C6.57033333,3.19316667 7.26033333,3.036 8.073,3.036 C8.51766667,3.036 8.94316667,3.10883333 9.3495,3.2545 C9.75583333,3.40016667 10.12,3.60333333 10.442,3.864 C10.764,4.12466667 11.0323333,4.4275 11.247,4.7725 C11.4616667,5.1175 11.5996667,5.497 11.661,5.911 Z" id="Path"></path>
                    <path d="M28.466,16.813 L28.466,4.922 L25.2,4.922 L25.2,11.155 C25.2,12.3663333 25.0006667,13.2365 24.602,13.7655 C24.2033333,14.2945 23.5593333,14.559 22.67,14.559 C21.888,14.559 21.3436667,14.3175 21.037,13.8345 C20.7303333,13.3515 20.577,12.6193333 20.577,11.638 L20.577,4.922 L17.311,4.922 L17.311,12.236 C17.311,12.972 17.3761667,13.6428333 17.5065,14.2485 C17.6368333,14.8541667 17.863,15.3678333 18.185,15.7895 C18.507,16.2111667 18.9478333,16.537 19.5075,16.767 C20.0671667,16.997 20.784,17.112 21.658,17.112 C22.348,17.112 23.0226667,16.9586667 23.682,16.652 C24.3413333,16.3453333 24.878,15.847 25.292,15.157 L25.361,15.157 L25.361,16.813 L28.466,16.813 Z" id="Path"></path>
                    <polygon id="Path" points="30.942 0.391 30.942 16.813 34.208 16.813 34.208 0.391"></polygon>
                    <path d="M40.824,4.922 L40.824,1.357 L37.558,1.357 L37.558,4.922 L35.58,4.922 L35.58,7.107 L37.558,7.107 L37.558,14.122 C37.558,14.72 37.6576667,15.203 37.857,15.571 C38.0563333,15.939 38.3285,16.2226667 38.6735,16.422 C39.0185,16.6213333 39.4171667,16.7555 39.8695,16.8245 C40.3218333,16.8935 40.801,16.928 41.307,16.928 C41.629,16.928 41.9586667,16.9203333 42.296,16.905 C42.6333333,16.8896667 42.94,16.859 43.216,16.813 L43.216,14.283 C43.0626667,14.3136667 42.9016667,14.3366667 42.733,14.352 C42.5643333,14.3673333 42.388,14.375 42.204,14.375 C41.652,14.375 41.284,14.283 41.1,14.099 C40.916,13.915 40.824,13.547 40.824,12.995 L40.824,7.107 L43.216,7.107 L43.216,4.922 L40.824,4.922 Z" id="Path"></path>
                    <path d="M55.835,16.813 L55.835,4.922 L52.569,4.922 L52.569,11.155 C52.569,12.3663333 52.3696667,13.2365 51.971,13.7655 C51.5723333,14.2945 50.9283333,14.559 50.039,14.559 C49.257,14.559 48.7126667,14.3175 48.406,13.8345 C48.0993333,13.3515 47.946,12.6193333 47.946,11.638 L47.946,4.922 L44.68,4.922 L44.68,12.236 C44.68,12.972 44.7451667,13.6428333 44.8755,14.2485 C45.0058333,14.8541667 45.232,15.3678333 45.554,15.7895 C45.876,16.2111667 46.3168333,16.537 46.8765,16.767 C47.4361667,16.997 48.153,17.112 49.027,17.112 C49.717,17.112 50.3916667,16.9586667 51.051,16.652 C51.7103333,16.3453333 52.247,15.847 52.661,15.157 L52.73,15.157 L52.73,16.813 L55.835,16.813 Z" id="Path"></path>
                    <path d="M58.219,4.922 L58.219,16.813 L61.485,16.813 L61.485,11.454 C61.485,10.9173333 61.5386667,10.419 61.646,9.959 C61.7533333,9.499 61.9335,9.0965 62.1865,8.7515 C62.4395,8.4065 62.773,8.13433333 63.187,7.935 C63.601,7.73566667 64.107,7.636 64.705,7.636 C64.9043333,7.636 65.1113333,7.6475 65.326,7.6705 C65.5406667,7.6935 65.7246667,7.72033333 65.878,7.751 L65.878,4.715 C65.6173333,4.63833333 65.3796667,4.6 65.165,4.6 C64.751,4.6 64.3523333,4.66133333 63.969,4.784 C63.5856667,4.90666667 63.2253333,5.07916667 62.888,5.3015 C62.5506667,5.52383333 62.2516667,5.79216667 61.991,6.1065 C61.7303333,6.42083333 61.5233333,6.762 61.37,7.13 L61.324,7.13 L61.324,4.922 L58.219,4.922 Z" id="Path"></path>
                    <path d="M66.928,8.579 C66.974,7.81233333 67.1656667,7.176 67.503,6.67 C67.8403333,6.164 68.2696667,5.75766667 68.791,5.451 C69.3123333,5.14433333 69.8988333,4.92583333 70.5505,4.7955 C71.2021667,4.66516667 71.8576667,4.6 72.517,4.6 C73.115,4.6 73.7206667,4.64216667 74.334,4.7265 C74.9473333,4.81083333 75.507,4.97566667 76.013,5.221 C76.519,5.46633333 76.933,5.8075 77.255,6.2445 C77.577,6.6815 77.738,7.26033333 77.738,7.981 L77.738,14.168 C77.738,14.7046667 77.7686667,15.2183333 77.83,15.709 C77.8913333,16.1996667 77.9986667,16.5676667 78.152,16.813 L74.84,16.813 C74.7786667,16.629 74.7288333,16.4411667 74.6905,16.2495 C74.6521667,16.0578333 74.6253333,15.8623333 74.61,15.663 C74.0886667,16.1996667 73.4753333,16.5753333 72.77,16.79 C72.0646667,17.0046667 71.344,17.112 70.608,17.112 C70.0406667,17.112 69.5116667,17.043 69.021,16.905 C68.5303333,16.767 68.101,16.5523333 67.733,16.261 C67.365,15.9696667 67.0775,15.6016667 66.8705,15.157 C66.6635,14.7123333 66.56,14.1833333 66.56,13.57 C66.56,12.8953333 66.6788333,12.3395 66.9165,11.9025 C67.1541667,11.4655 67.4608333,11.1166667 67.8365,10.856 C68.2121667,10.5953333 68.6415,10.3998333 69.1245,10.2695 C69.6075,10.1391667 70.0943333,10.0356667 70.585,9.959 C71.0756667,9.88233333 71.5586667,9.821 72.034,9.775 C72.5093333,9.729 72.931,9.66 73.299,9.568 C73.667,9.476 73.9583333,9.34183333 74.173,9.1655 C74.3876667,8.98916667 74.4873333,8.73233333 74.472,8.395 C74.472,8.04233333 74.4145,7.7625 74.2995,7.5555 C74.1845,7.3485 74.0311667,7.1875 73.8395,7.0725 C73.6478333,6.9575 73.4255,6.88083333 73.1725,6.8425 C72.9195,6.80416667 72.6473333,6.785 72.356,6.785 C71.712,6.785 71.206,6.923 70.838,7.199 C70.47,7.475 70.2553333,7.935 70.194,8.579 L66.928,8.579 Z M74.472,10.994 C74.334,11.1166667 74.1615,11.2125 73.9545,11.2815 C73.7475,11.3505 73.5251667,11.408 73.2875,11.454 C73.0498333,11.5 72.8006667,11.5383333 72.54,11.569 C72.2793333,11.5996667 72.0186667,11.638 71.758,11.684 C71.5126667,11.73 71.2711667,11.7913333 71.0335,11.868 C70.7958333,11.9446667 70.5888333,12.0481667 70.4125,12.1785 C70.2361667,12.3088333 70.0943333,12.4736667 69.987,12.673 C69.8796667,12.8723333 69.826,13.1253333 69.826,13.432 C69.826,13.7233333 69.8796667,13.9686667 69.987,14.168 C70.0943333,14.3673333 70.24,14.5245 70.424,14.6395 C70.608,14.7545 70.8226667,14.835 71.068,14.881 C71.3133333,14.927 71.5663333,14.95 71.827,14.95 C72.471,14.95 72.9693333,14.8426667 73.322,14.628 C73.6746667,14.4133333 73.9353333,14.1565 74.104,13.8575 C74.2726667,13.5585 74.3761667,13.2556667 74.4145,12.949 C74.4528333,12.6423333 74.472,12.397 74.472,12.213 L74.472,10.994 Z" id="Shape"></path>
                    <polygon id="Path" points="80.26 0.391 80.26 16.813 83.526 16.813 83.526 0.391"></polygon>
                </g>
            </g>
        </g>
    </g>
</svg>